<mxfile host="app.diagrams.net" agent="Mozilla/5.0 (Macintosh; Intel Mac OS X 10_15_7) AppleWebKit/537.36 (KHTML, like Gecko) Chrome/131.0.0.0 Safari/537.36" version="26.0.8">
  <diagram name="Page-1" id="gw5h57cjQ7ecA2eVoBsa">
    <mxGraphModel dx="3145" dy="2320" grid="1" gridSize="10" guides="1" tooltips="1" connect="1" arrows="1" fold="1" page="1" pageScale="1" pageWidth="850" pageHeight="1100" math="0" shadow="0">
      <root>
        <mxCell id="0" />
        <mxCell id="1" parent="0" />
        <mxCell id="dDhgF8H68qVY3gbG-Y3d-72" value="Toast Object" style="html=1;overflow=block;blockSpacing=1;whiteSpace=wrap;fontSize=16.8;align=left;spacing=9;verticalAlign=top;strokeColor=#unset;rounded=1;absoluteArcSize=1;arcSize=12;fillColor=#FFFFFF;strokeWidth=NaN;lucidId=3mcNQhAL5SDH;" vertex="1" parent="1">
          <mxGeometry x="921" y="512" width="1140" height="1138" as="geometry" />
        </mxCell>
        <mxCell id="dDhgF8H68qVY3gbG-Y3d-73" value="array?" style="html=1;overflow=block;blockSpacing=1;whiteSpace=wrap;rhombus;fontSize=16.7;fontColor=#3a414a;spacing=3.8;strokeColor=#000000;rounded=1;absoluteArcSize=1;arcSize=9;fillColor=#FFFFFF;strokeWidth=NaN;lucidId=39wLGG56x5rx;" vertex="1" parent="1">
          <mxGeometry x="1538" y="628" width="120" height="90" as="geometry" />
        </mxCell>
        <mxCell id="dDhgF8H68qVY3gbG-Y3d-74" value="" style="html=1;jettySize=18;whiteSpace=wrap;fontSize=13.3;fontColor=#333333;fontStyle=1;strokeColor=#3a414a;strokeOpacity=100;strokeWidth=0.8;rounded=1;arcSize=12;edgeStyle=orthogonalEdgeStyle;startArrow=none;endArrow=block;endFill=1;exitX=0.991;exitY=0.5;exitPerimeter=0;entryX=-0.002;entryY=0.5;entryPerimeter=0;lucidId=39wLRLaOBurm;" edge="1" parent="1" source="dDhgF8H68qVY3gbG-Y3d-73" target="dDhgF8H68qVY3gbG-Y3d-116">
          <mxGeometry width="100" height="100" relative="1" as="geometry">
            <Array as="points" />
          </mxGeometry>
        </mxCell>
        <mxCell id="dDhgF8H68qVY3gbG-Y3d-75" value="Yes" style="text;html=1;resizable=0;labelBackgroundColor=default;align=center;verticalAlign=middle;fontStyle=1;fontColor=#333333;fontSize=13.3;" vertex="1" parent="dDhgF8H68qVY3gbG-Y3d-74">
          <mxGeometry x="-0.2581939902150384" relative="1" as="geometry" />
        </mxCell>
        <mxCell id="dDhgF8H68qVY3gbG-Y3d-76" value="PDP Blade" style="html=1;overflow=block;blockSpacing=1;whiteSpace=wrap;shape=document;boundedLbl=1;fontSize=16.7;fontColor=#3a414a;spacing=3.8;strokeColor=#000000;rounded=1;absoluteArcSize=1;arcSize=9;fillColor=#FFFFFF;strokeWidth=NaN;lucidId=39wLS~P~1.6K;" vertex="1" parent="1">
          <mxGeometry x="818" y="-183" width="120" height="90" as="geometry" />
        </mxCell>
        <mxCell id="dDhgF8H68qVY3gbG-Y3d-77" value="" style="html=1;jettySize=18;whiteSpace=wrap;fontSize=13;strokeColor=#3a414a;strokeOpacity=100;strokeWidth=0.8;rounded=1;arcSize=24;edgeStyle=orthogonalEdgeStyle;startArrow=none;endArrow=block;endFill=1;exitX=0.5;exitY=0.919;exitPerimeter=0;entryX=0.5;entryY=-0.004;entryPerimeter=0;lucidId=DjcNAcQdBDPB;" edge="1" parent="1" source="dDhgF8H68qVY3gbG-Y3d-76" target="dDhgF8H68qVY3gbG-Y3d-78">
          <mxGeometry width="100" height="100" relative="1" as="geometry">
            <Array as="points" />
          </mxGeometry>
        </mxCell>
        <mxCell id="dDhgF8H68qVY3gbG-Y3d-78" value="Set remainingEntries" style="html=1;overflow=block;blockSpacing=1;whiteSpace=wrap;fontSize=16.7;fontColor=#3a414a;spacing=3.8;strokeColor=#000000;rounded=1;absoluteArcSize=1;arcSize=9;fillColor=#FFFFFF;strokeWidth=NaN;lucidId=TjcNyfcSah-A;" vertex="1" parent="1">
          <mxGeometry x="802" y="-23" width="152" height="90" as="geometry" />
        </mxCell>
        <mxCell id="dDhgF8H68qVY3gbG-Y3d-79" value="PCH.remainingEntries" style="html=1;overflow=block;blockSpacing=1;whiteSpace=wrap;shape=cylinder3;boundedLbl=1;size=15;lid=0;direction=south;fontSize=16.8;align=center;spacing=3.8;strokeColor=#000000;rounded=1;absoluteArcSize=1;arcSize=12;fillColor=#FFFFFF;strokeWidth=NaN;lucidId=ykcNpGGgux9V;" vertex="1" parent="1">
          <mxGeometry x="47" y="32" width="265" height="90" as="geometry" />
        </mxCell>
        <mxCell id="dDhgF8H68qVY3gbG-Y3d-80" value="PCH.toast" style="html=1;overflow=block;blockSpacing=1;whiteSpace=wrap;shape=cylinder3;boundedLbl=1;size=15;lid=0;direction=south;fontSize=16.8;align=center;spacing=3.8;strokeColor=#000000;rounded=1;absoluteArcSize=1;arcSize=12;fillColor=#FFFFFF;strokeWidth=NaN;lucidId=UkcNcm92WD6_;" vertex="1" parent="1">
          <mxGeometry x="1383" y="128" width="265" height="90" as="geometry" />
        </mxCell>
        <mxCell id="dDhgF8H68qVY3gbG-Y3d-81" value="" style="html=1;jettySize=18;whiteSpace=wrap;fontSize=13;strokeColor=#3a414a;strokeOpacity=100;strokeWidth=0.8;rounded=1;arcSize=24;edgeStyle=orthogonalEdgeStyle;startArrow=none;endArrow=block;endFill=1;exitX=-0.002;exitY=0.5;exitPerimeter=0;lucidId=ylcNho6e9B_B;entryX=0.145;entryY=0;entryDx=0;entryDy=4.35;entryPerimeter=0;" edge="1" parent="1" source="dDhgF8H68qVY3gbG-Y3d-78" target="dDhgF8H68qVY3gbG-Y3d-79">
          <mxGeometry width="100" height="100" relative="1" as="geometry">
            <Array as="points">
              <mxPoint x="560" y="22" />
              <mxPoint x="560" y="50" />
              <mxPoint x="308" y="50" />
            </Array>
            <mxPoint x="320" y="70" as="targetPoint" />
          </mxGeometry>
        </mxCell>
        <mxCell id="dDhgF8H68qVY3gbG-Y3d-82" value="" style="html=1;jettySize=18;whiteSpace=wrap;fontSize=13;strokeColor=#3a414a;strokeOpacity=100;strokeWidth=0.8;rounded=1;arcSize=24;edgeStyle=orthogonalEdgeStyle;startArrow=none;endArrow=block;endFill=1;exitX=0.5;exitY=1.004;exitPerimeter=0;entryX=0.5;entryY=-0.004;entryPerimeter=0;lucidId=8lcNTyYnrC7E;" edge="1" parent="1" source="dDhgF8H68qVY3gbG-Y3d-78" target="dDhgF8H68qVY3gbG-Y3d-83">
          <mxGeometry width="100" height="100" relative="1" as="geometry">
            <Array as="points" />
          </mxGeometry>
        </mxCell>
        <mxCell id="dDhgF8H68qVY3gbG-Y3d-83" value="Set&#xa;toastMessage" style="html=1;overflow=block;blockSpacing=1;whiteSpace=wrap;fontSize=16.7;fontColor=#3a414a;spacing=3.8;strokeColor=#000000;rounded=1;absoluteArcSize=1;arcSize=9;fillColor=#FFFFFF;strokeWidth=NaN;lucidId=8lcN54hvHGNc;" vertex="1" parent="1">
          <mxGeometry x="802" y="113" width="152" height="90" as="geometry" />
        </mxCell>
        <mxCell id="dDhgF8H68qVY3gbG-Y3d-84" value="" style="html=1;jettySize=18;whiteSpace=wrap;fontSize=13;strokeColor=#3a414a;strokeOpacity=100;strokeWidth=0.8;rounded=1;arcSize=24;edgeStyle=orthogonalEdgeStyle;startArrow=none;endArrow=block;endFill=1;exitX=1.002;exitY=0.5;exitPerimeter=0;entryX=-0.001;entryY=0.5;entryPerimeter=0;lucidId=pmcN~8Vt1Tbs;" edge="1" parent="1" source="dDhgF8H68qVY3gbG-Y3d-83" target="dDhgF8H68qVY3gbG-Y3d-80">
          <mxGeometry width="100" height="100" relative="1" as="geometry">
            <Array as="points" />
          </mxGeometry>
        </mxCell>
        <mxCell id="dDhgF8H68qVY3gbG-Y3d-85" value="Button Object" style="html=1;overflow=block;blockSpacing=1;whiteSpace=wrap;fontSize=16.8;align=left;spacing=9;verticalAlign=top;strokeColor=#unset;rounded=1;absoluteArcSize=1;arcSize=12;fillColor=#FFFFFF;strokeWidth=NaN;lucidId=LncNh5orO_hr;" vertex="1" parent="1">
          <mxGeometry x="38" y="512" width="864" height="1138" as="geometry" />
        </mxCell>
        <mxCell id="dDhgF8H68qVY3gbG-Y3d-86" value="remainingEntries&#xa; == 0" style="html=1;overflow=block;blockSpacing=1;whiteSpace=wrap;rhombus;fontSize=16.7;fontColor=#3a414a;spacing=3.8;strokeColor=#000000;rounded=1;absoluteArcSize=1;arcSize=9;fillColor=#FFFFFF;strokeWidth=NaN;lucidId=LocNEv0WKuc3;" vertex="1" parent="1">
          <mxGeometry x="213" y="701" width="228" height="127" as="geometry" />
        </mxCell>
        <mxCell id="dDhgF8H68qVY3gbG-Y3d-87" value="" style="html=1;jettySize=18;whiteSpace=wrap;fontSize=13;strokeColor=#3a414a;strokeOpacity=100;strokeWidth=0.8;rounded=1;arcSize=24;edgeStyle=orthogonalEdgeStyle;startArrow=none;endArrow=block;endFill=1;exitX=-0.002;exitY=0.5;exitPerimeter=0;lucidId=NpcN58fpwGCk;" edge="1" parent="1" source="dDhgF8H68qVY3gbG-Y3d-89">
          <mxGeometry width="100" height="100" relative="1" as="geometry">
            <Array as="points">
              <mxPoint x="5" y="608" />
              <mxPoint x="5" y="80" />
            </Array>
            <mxPoint x="40" y="80" as="targetPoint" />
          </mxGeometry>
        </mxCell>
        <mxCell id="dDhgF8H68qVY3gbG-Y3d-88" value="check" style="text;html=1;resizable=0;labelBackgroundColor=default;align=center;verticalAlign=middle;fontSize=16.8;" vertex="1" parent="dDhgF8H68qVY3gbG-Y3d-87">
          <mxGeometry relative="1" as="geometry" />
        </mxCell>
        <mxCell id="dDhgF8H68qVY3gbG-Y3d-89" value="&lt;div style=&quot;display: flex; justify-content: center; text-align: center; align-items: baseline; font-size: 0; line-height: 1.25;margin-top: -2px;&quot;&gt;&lt;span&gt;&lt;span style=&quot;font-size:16.8px;&quot;&gt;method: &#xa;&lt;/span&gt;&lt;/span&gt;&lt;/div&gt;&lt;div style=&quot;display: flex; justify-content: center; text-align: center; align-items: baseline; font-size: 0; line-height: 1.25;margin-top: -2px;&quot;&gt;&lt;span&gt;&lt;span style=&quot;font-size:16.8px;&quot;&gt;update&lt;/span&gt;&lt;/span&gt;&lt;/div&gt;" style="html=1;overflow=block;blockSpacing=1;whiteSpace=wrap;fontSize=13;spacing=3.8;strokeColor=#000000;rounded=1;absoluteArcSize=1;arcSize=12;fillColor=#FFFFFF;strokeWidth=NaN;lucidId=MqcNU2eg5RTd;" vertex="1" parent="1">
          <mxGeometry x="61" y="572" width="174" height="73" as="geometry" />
        </mxCell>
        <mxCell id="dDhgF8H68qVY3gbG-Y3d-90" value="" style="html=1;jettySize=18;whiteSpace=wrap;fontSize=13;strokeColor=#3a414a;strokeOpacity=100;strokeWidth=0.8;rounded=1;arcSize=24;edgeStyle=orthogonalEdgeStyle;startArrow=none;endArrow=block;endFill=1;exitX=0.5;exitY=1.005;exitPerimeter=0;entryX=0.007;entryY=0.5;entryPerimeter=0;lucidId=-qcNa4HgJQWw;" edge="1" parent="1" source="dDhgF8H68qVY3gbG-Y3d-89" target="dDhgF8H68qVY3gbG-Y3d-86">
          <mxGeometry width="100" height="100" relative="1" as="geometry">
            <Array as="points" />
          </mxGeometry>
        </mxCell>
        <mxCell id="dDhgF8H68qVY3gbG-Y3d-91" value="" style="html=1;jettySize=18;whiteSpace=wrap;fontSize=13;strokeColor=#3a414a;strokeOpacity=100;strokeWidth=0.8;rounded=1;arcSize=24;edgeStyle=orthogonalEdgeStyle;startArrow=none;endArrow=block;endFill=1;exitX=0.993;exitY=0.5;exitPerimeter=0;entryX=-0.002;entryY=0.5;entryPerimeter=0;lucidId=vrcNVw2aQu2R;" edge="1" parent="1" source="dDhgF8H68qVY3gbG-Y3d-86" target="dDhgF8H68qVY3gbG-Y3d-96">
          <mxGeometry width="100" height="100" relative="1" as="geometry">
            <Array as="points" />
          </mxGeometry>
        </mxCell>
        <mxCell id="dDhgF8H68qVY3gbG-Y3d-92" value="yes" style="text;html=1;resizable=0;labelBackgroundColor=default;align=center;verticalAlign=middle;fontSize=16.8;" vertex="1" parent="dDhgF8H68qVY3gbG-Y3d-91">
          <mxGeometry x="-0.17806509569504392" relative="1" as="geometry" />
        </mxCell>
        <mxCell id="dDhgF8H68qVY3gbG-Y3d-93" value="" style="html=1;jettySize=18;whiteSpace=wrap;fontSize=13;strokeColor=#3a414a;strokeOpacity=100;strokeWidth=0.8;rounded=1;arcSize=24;edgeStyle=orthogonalEdgeStyle;startArrow=none;endArrow=block;endFill=1;exitX=0.5;exitY=1;exitPerimeter=0;entryX=0.484;entryY=-0.004;entryPerimeter=0;lucidId=SrcNp7c4l2Sc;" edge="1" parent="1" source="dDhgF8H68qVY3gbG-Y3d-86" target="dDhgF8H68qVY3gbG-Y3d-95">
          <mxGeometry width="100" height="100" relative="1" as="geometry">
            <Array as="points" />
          </mxGeometry>
        </mxCell>
        <mxCell id="dDhgF8H68qVY3gbG-Y3d-94" value="no" style="text;html=1;resizable=0;labelBackgroundColor=default;align=center;verticalAlign=middle;fontSize=16.8;" vertex="1" parent="dDhgF8H68qVY3gbG-Y3d-93">
          <mxGeometry x="-0.23300477990271806" relative="1" as="geometry" />
        </mxCell>
        <mxCell id="dDhgF8H68qVY3gbG-Y3d-95" value="show&#xa;EntryButton" style="html=1;overflow=block;blockSpacing=1;whiteSpace=wrap;fontSize=16.7;fontColor=#3a414a;spacing=3.8;strokeColor=#000000;rounded=1;absoluteArcSize=1;arcSize=9;fillColor=#FFFFFF;strokeWidth=NaN;lucidId=escNVCBURzAb;" vertex="1" parent="1">
          <mxGeometry x="253" y="935" width="152" height="90" as="geometry" />
        </mxCell>
        <mxCell id="dDhgF8H68qVY3gbG-Y3d-96" value="show&#xa;LinkButton" style="html=1;overflow=block;blockSpacing=1;whiteSpace=wrap;fontSize=16.7;fontColor=#3a414a;spacing=3.8;strokeColor=#000000;rounded=1;absoluteArcSize=1;arcSize=9;fillColor=#FFFFFF;strokeWidth=NaN;lucidId=lscN~Sp_HrmS;" vertex="1" parent="1">
          <mxGeometry x="587" y="719" width="152" height="90" as="geometry" />
        </mxCell>
        <mxCell id="dDhgF8H68qVY3gbG-Y3d-97" value="method: submitEntry" style="html=1;overflow=block;blockSpacing=1;whiteSpace=wrap;fontSize=16.8;align=center;spacing=3.8;strokeColor=#000000;rounded=1;absoluteArcSize=1;arcSize=12;fillColor=#FFFFFF;strokeWidth=NaN;lucidId=PtcN5KRx0lkk;" vertex="1" parent="1">
          <mxGeometry x="75" y="1070" width="174" height="73" as="geometry" />
        </mxCell>
        <mxCell id="dDhgF8H68qVY3gbG-Y3d-98" value="call&#xa;EntryAPI" style="html=1;overflow=block;blockSpacing=1;whiteSpace=wrap;fontSize=16.7;fontColor=#3a414a;spacing=3.8;strokeColor=#000000;rounded=1;absoluteArcSize=1;arcSize=9;fillColor=#FFFFFF;strokeWidth=NaN;lucidId=mucN9u~-bBC3;" vertex="1" parent="1">
          <mxGeometry x="333" y="1061" width="152" height="90" as="geometry" />
        </mxCell>
        <mxCell id="dDhgF8H68qVY3gbG-Y3d-99" value="" style="html=1;jettySize=18;whiteSpace=wrap;fontSize=13;strokeColor=#3a414a;strokeOpacity=100;strokeWidth=0.8;rounded=1;arcSize=24;edgeStyle=orthogonalEdgeStyle;startArrow=none;endArrow=block;endFill=1;exitX=1.002;exitY=0.5;exitPerimeter=0;entryX=-0.002;entryY=0.5;entryPerimeter=0;lucidId=uucNUF~m7vdX;" edge="1" parent="1" source="dDhgF8H68qVY3gbG-Y3d-97" target="dDhgF8H68qVY3gbG-Y3d-98">
          <mxGeometry width="100" height="100" relative="1" as="geometry">
            <Array as="points" />
          </mxGeometry>
        </mxCell>
        <mxCell id="dDhgF8H68qVY3gbG-Y3d-100" value="" style="html=1;jettySize=18;whiteSpace=wrap;fontSize=13;strokeColor=#3a414a;strokeOpacity=100;strokeWidth=0.8;rounded=1;arcSize=24;edgeStyle=orthogonalEdgeStyle;startArrow=none;endArrow=block;endFill=1;exitX=1.002;exitY=0.5;exitPerimeter=0;entryX=-0.002;entryY=0.5;entryPerimeter=0;lucidId=bxcNAidD-XpK;" edge="1" parent="1" source="dDhgF8H68qVY3gbG-Y3d-98" target="dDhgF8H68qVY3gbG-Y3d-101">
          <mxGeometry width="100" height="100" relative="1" as="geometry">
            <Array as="points" />
          </mxGeometry>
        </mxCell>
        <mxCell id="dDhgF8H68qVY3gbG-Y3d-101" value="update&#xa;freeEntries" style="html=1;overflow=block;blockSpacing=1;whiteSpace=wrap;fontSize=16.7;fontColor=#3a414a;spacing=3.8;strokeColor=#000000;rounded=1;absoluteArcSize=1;arcSize=9;fillColor=#FFFFFF;strokeWidth=NaN;lucidId=vxcN_c3.aIAS;" vertex="1" parent="1">
          <mxGeometry x="576" y="1061" width="152" height="90" as="geometry" />
        </mxCell>
        <mxCell id="dDhgF8H68qVY3gbG-Y3d-102" value="update&#xa;freeEntries" style="html=1;overflow=block;blockSpacing=1;whiteSpace=wrap;fontSize=16.7;fontColor=#3a414a;spacing=3.8;strokeColor=#unset;rounded=1;absoluteArcSize=1;arcSize=9;fillColor=#unset;strokeWidth=NaN;lucidId=UxcNTEKePn9k;" vertex="1" parent="1">
          <mxGeometry x="576" y="1209" width="152" height="90" as="geometry" />
        </mxCell>
        <mxCell id="dDhgF8H68qVY3gbG-Y3d-103" value="" style="html=1;jettySize=18;whiteSpace=wrap;fontSize=13;strokeColor=#3a414a;strokeOpacity=100;strokeWidth=0.8;rounded=1;arcSize=24;edgeStyle=orthogonalEdgeStyle;startArrow=none;endArrow=block;endFill=1;exitX=0.5;exitY=1.004;exitPerimeter=0;entryX=0.5;entryY=-0.004;entryPerimeter=0;lucidId=ZxcNuGoKoh3z;" edge="1" parent="1" source="dDhgF8H68qVY3gbG-Y3d-101" target="dDhgF8H68qVY3gbG-Y3d-104">
          <mxGeometry width="100" height="100" relative="1" as="geometry">
            <Array as="points" />
          </mxGeometry>
        </mxCell>
        <mxCell id="dDhgF8H68qVY3gbG-Y3d-104" value="update&#xa;toastMessages" style="html=1;overflow=block;blockSpacing=1;whiteSpace=wrap;fontSize=16.7;fontColor=#3a414a;spacing=3.8;strokeColor=#000000;rounded=1;absoluteArcSize=1;arcSize=9;fillColor=#FFFFFF;strokeWidth=NaN;lucidId=ZxcNGKInkIeP;" vertex="1" parent="1">
          <mxGeometry x="576" y="1211" width="152" height="90" as="geometry" />
        </mxCell>
        <mxCell id="dDhgF8H68qVY3gbG-Y3d-105" value="" style="html=1;jettySize=18;whiteSpace=wrap;fontSize=13;strokeColor=#3a414a;strokeOpacity=100;dashed=1;fixDash=1;dashPattern=3 8;strokeWidth=0.8;rounded=1;arcSize=24;edgeStyle=orthogonalEdgeStyle;startArrow=none;endArrow=block;endFill=1;exitX=1.002;exitY=0.5;exitPerimeter=0;lucidId=jycNHAJ.Pgbc;" edge="1" parent="1" source="dDhgF8H68qVY3gbG-Y3d-101" target="dDhgF8H68qVY3gbG-Y3d-79">
          <mxGeometry width="100" height="100" relative="1" as="geometry">
            <Array as="points">
              <mxPoint x="772" y="1106" />
              <mxPoint x="772" y="326" />
              <mxPoint x="180" y="326" />
            </Array>
          </mxGeometry>
        </mxCell>
        <mxCell id="dDhgF8H68qVY3gbG-Y3d-106" value="update" style="text;html=1;resizable=0;labelBackgroundColor=default;align=center;verticalAlign=middle;fontSize=16.8;" vertex="1" parent="dDhgF8H68qVY3gbG-Y3d-105">
          <mxGeometry x="0.4968688076851724" relative="1" as="geometry" />
        </mxCell>
        <mxCell id="dDhgF8H68qVY3gbG-Y3d-107" value="" style="html=1;jettySize=18;whiteSpace=wrap;fontSize=13;strokeColor=#3a414a;strokeOpacity=100;dashed=1;fixDash=1;dashPattern=3 8;strokeWidth=0.8;rounded=1;arcSize=24;edgeStyle=orthogonalEdgeStyle;startArrow=none;endArrow=block;endFill=1;exitX=1.002;exitY=0.5;exitPerimeter=0;entryX=0.5;entryY=1.004;entryPerimeter=0;lucidId=2ycNQ5HZ0rLK;" edge="1" parent="1" source="dDhgF8H68qVY3gbG-Y3d-104" target="dDhgF8H68qVY3gbG-Y3d-80">
          <mxGeometry width="100" height="100" relative="1" as="geometry">
            <Array as="points">
              <mxPoint x="878" y="1256" />
              <mxPoint x="878" y="490" />
              <mxPoint x="1516" y="490" />
            </Array>
          </mxGeometry>
        </mxCell>
        <mxCell id="dDhgF8H68qVY3gbG-Y3d-108" value="update" style="text;html=1;resizable=0;labelBackgroundColor=default;align=center;verticalAlign=middle;fontSize=16.8;" vertex="1" parent="dDhgF8H68qVY3gbG-Y3d-107">
          <mxGeometry x="0.2865885283510812" relative="1" as="geometry" />
        </mxCell>
        <mxCell id="dDhgF8H68qVY3gbG-Y3d-109" value="" style="html=1;jettySize=18;whiteSpace=wrap;fontSize=13;strokeColor=#3a414a;strokeOpacity=100;strokeWidth=0.8;rounded=1;arcSize=24;edgeStyle=orthogonalEdgeStyle;startArrow=none;endArrow=block;endFill=1;exitX=0.5;exitY=1.004;exitPerimeter=0;entryX=0.5;entryY=-0.004;entryPerimeter=0;lucidId=0zcNzAsBHDRK;" edge="1" parent="1" source="dDhgF8H68qVY3gbG-Y3d-104" target="dDhgF8H68qVY3gbG-Y3d-110">
          <mxGeometry width="100" height="100" relative="1" as="geometry">
            <Array as="points" />
          </mxGeometry>
        </mxCell>
        <mxCell id="dDhgF8H68qVY3gbG-Y3d-110" value="call&#xa;this.update" style="html=1;overflow=block;blockSpacing=1;whiteSpace=wrap;fontSize=16.7;fontColor=#3a414a;spacing=3.8;strokeColor=#000000;rounded=1;absoluteArcSize=1;arcSize=9;fillColor=#FFFFFF;strokeWidth=NaN;lucidId=0zcNt8A5b33~;" vertex="1" parent="1">
          <mxGeometry x="576" y="1361" width="152" height="90" as="geometry" />
        </mxCell>
        <mxCell id="dDhgF8H68qVY3gbG-Y3d-111" value="&lt;div style=&quot;display: flex; justify-content: center; text-align: center; align-items: baseline; font-size: 0; line-height: 1.25;margin-top: -2px;&quot;&gt;&lt;span&gt;&lt;span style=&quot;font-size:16.8px;&quot;&gt;method: &#xa;&lt;/span&gt;&lt;/span&gt;&lt;/div&gt;&lt;div style=&quot;display: flex; justify-content: center; text-align: center; align-items: baseline; font-size: 0; line-height: 1.25;margin-top: -2px;&quot;&gt;&lt;span&gt;&lt;span style=&quot;font-size:16.8px;&quot;&gt;check&lt;/span&gt;&lt;/span&gt;&lt;/div&gt;" style="html=1;overflow=block;blockSpacing=1;whiteSpace=wrap;fontSize=13;spacing=3.8;strokeColor=#000000;rounded=1;absoluteArcSize=1;arcSize=12;fillColor=#FFFFFF;strokeWidth=NaN;lucidId=yAcNBw445g.e;" vertex="1" parent="1">
          <mxGeometry x="954" y="562" width="174" height="73" as="geometry" />
        </mxCell>
        <mxCell id="dDhgF8H68qVY3gbG-Y3d-112" value="" style="html=1;jettySize=18;whiteSpace=wrap;fontSize=13;strokeColor=#3a414a;strokeOpacity=100;strokeWidth=0.8;rounded=1;arcSize=24;edgeStyle=orthogonalEdgeStyle;startArrow=none;endArrow=block;endFill=1;exitX=1.002;exitY=0.5;exitPerimeter=0;entryX=0.008;entryY=0.5;entryPerimeter=0;lucidId=XBcNX8rlZWZI;" edge="1" parent="1" source="dDhgF8H68qVY3gbG-Y3d-111" target="dDhgF8H68qVY3gbG-Y3d-131">
          <mxGeometry width="100" height="100" relative="1" as="geometry">
            <Array as="points" />
          </mxGeometry>
        </mxCell>
        <mxCell id="dDhgF8H68qVY3gbG-Y3d-113" value="" style="html=1;jettySize=18;whiteSpace=wrap;fontSize=13;strokeColor=#3a414a;strokeOpacity=100;strokeWidth=0.8;rounded=1;arcSize=24;edgeStyle=orthogonalEdgeStyle;startArrow=none;endArrow=block;endFill=1;exitX=0.5;exitY=0.996;exitPerimeter=0;entryX=0.5;entryY=-0.004;entryPerimeter=0;lucidId=uEcNawXtoGaq;" edge="1" parent="1" source="dDhgF8H68qVY3gbG-Y3d-73" target="dDhgF8H68qVY3gbG-Y3d-115">
          <mxGeometry width="100" height="100" relative="1" as="geometry">
            <Array as="points" />
          </mxGeometry>
        </mxCell>
        <mxCell id="dDhgF8H68qVY3gbG-Y3d-114" value="no" style="text;html=1;resizable=0;labelBackgroundColor=default;align=center;verticalAlign=middle;fontSize=16.8;" vertex="1" parent="dDhgF8H68qVY3gbG-Y3d-113">
          <mxGeometry x="-0.18682894500686387" relative="1" as="geometry" />
        </mxCell>
        <mxCell id="dDhgF8H68qVY3gbG-Y3d-115" value="call&#xa;this.show" style="html=1;overflow=block;blockSpacing=1;whiteSpace=wrap;fontSize=16.7;fontColor=#3a414a;spacing=3.8;strokeColor=#000000;rounded=1;absoluteArcSize=1;arcSize=9;fillColor=#FFFFFF;strokeWidth=NaN;lucidId=rGcNTLNOGZwF;" vertex="1" parent="1">
          <mxGeometry x="1522" y="836" width="152" height="90" as="geometry" />
        </mxCell>
        <mxCell id="dDhgF8H68qVY3gbG-Y3d-116" value="call&#xa;this.pop" style="html=1;overflow=block;blockSpacing=1;whiteSpace=wrap;fontSize=16.7;fontColor=#3a414a;spacing=3.8;strokeColor=#000000;rounded=1;absoluteArcSize=1;arcSize=9;fillColor=#FFFFFF;strokeWidth=NaN;lucidId=0GcNq95EGFx8;" vertex="1" parent="1">
          <mxGeometry x="1850" y="628" width="152" height="90" as="geometry" />
        </mxCell>
        <mxCell id="dDhgF8H68qVY3gbG-Y3d-117" value="&lt;div style=&quot;display: flex; justify-content: center; text-align: center; align-items: baseline; font-size: 0; line-height: 1.25;margin-top: -2px;&quot;&gt;&lt;span&gt;&lt;span style=&quot;font-size:16.8px;&quot;&gt;method: &#xa;&lt;/span&gt;&lt;/span&gt;&lt;/div&gt;&lt;div style=&quot;display: flex; justify-content: center; text-align: center; align-items: baseline; font-size: 0; line-height: 1.25;margin-top: -2px;&quot;&gt;&lt;span&gt;&lt;span style=&quot;font-size:16.8px;&quot;&gt;show&lt;/span&gt;&lt;/span&gt;&lt;/div&gt;" style="html=1;overflow=block;blockSpacing=1;whiteSpace=wrap;fontSize=13;spacing=3.8;strokeColor=#000000;rounded=1;absoluteArcSize=1;arcSize=12;fillColor=#FFFFFF;strokeWidth=NaN;lucidId=FHcNC-zdUFpw;" vertex="1" parent="1">
          <mxGeometry x="985" y="1297" width="174" height="73" as="geometry" />
        </mxCell>
        <mxCell id="dDhgF8H68qVY3gbG-Y3d-118" value="" style="html=1;jettySize=18;whiteSpace=wrap;fontSize=13;strokeColor=#3a414a;strokeOpacity=100;strokeWidth=0.8;rounded=1;arcSize=24;edgeStyle=orthogonalEdgeStyle;startArrow=none;endArrow=block;endFill=1;exitX=1.002;exitY=0.5;exitPerimeter=0;entryX=-0.002;entryY=0.5;entryPerimeter=0;lucidId=iIcNcyS_n9NW;" edge="1" parent="1" source="dDhgF8H68qVY3gbG-Y3d-117" target="dDhgF8H68qVY3gbG-Y3d-119">
          <mxGeometry width="100" height="100" relative="1" as="geometry">
            <Array as="points" />
          </mxGeometry>
        </mxCell>
        <mxCell id="dDhgF8H68qVY3gbG-Y3d-119" value="display&#xa;Message" style="html=1;overflow=block;blockSpacing=1;whiteSpace=wrap;fontSize=16.7;fontColor=#3a414a;spacing=3.8;strokeColor=#000000;rounded=1;absoluteArcSize=1;arcSize=9;fillColor=#FFFFFF;strokeWidth=NaN;lucidId=-IcNPOg-j4-L;" vertex="1" parent="1">
          <mxGeometry x="1288" y="1289" width="152" height="90" as="geometry" />
        </mxCell>
        <mxCell id="dDhgF8H68qVY3gbG-Y3d-120" value="&lt;div style=&quot;display: flex; justify-content: center; text-align: center; align-items: baseline; font-size: 0; line-height: 1.25;margin-top: -2px;&quot;&gt;&lt;span&gt;&lt;span style=&quot;font-size:16.8px;&quot;&gt;method: &#xa;&lt;/span&gt;&lt;/span&gt;&lt;/div&gt;&lt;div style=&quot;display: flex; justify-content: center; text-align: center; align-items: baseline; font-size: 0; line-height: 1.25;margin-top: -2px;&quot;&gt;&lt;span&gt;&lt;span style=&quot;font-size:16.8px;&quot;&gt;pop&lt;/span&gt;&lt;/span&gt;&lt;/div&gt;" style="html=1;overflow=block;blockSpacing=1;whiteSpace=wrap;fontSize=13;spacing=3.8;strokeColor=#000000;rounded=1;absoluteArcSize=1;arcSize=12;fillColor=#FFFFFF;strokeWidth=NaN;lucidId=_JcN0F05yXfv;" vertex="1" parent="1">
          <mxGeometry x="977" y="1020" width="174" height="73" as="geometry" />
        </mxCell>
        <mxCell id="dDhgF8H68qVY3gbG-Y3d-121" value="" style="html=1;jettySize=18;whiteSpace=wrap;fontSize=13;strokeColor=#3a414a;strokeOpacity=100;strokeWidth=0.8;rounded=1;arcSize=24;edgeStyle=orthogonalEdgeStyle;startArrow=none;endArrow=block;endFill=1;exitX=1.002;exitY=0.5;exitPerimeter=0;entryX=-0.002;entryY=0.5;entryPerimeter=0;lucidId=_JcNG7iXIQax;" edge="1" parent="1" source="dDhgF8H68qVY3gbG-Y3d-120" target="dDhgF8H68qVY3gbG-Y3d-122">
          <mxGeometry width="100" height="100" relative="1" as="geometry">
            <Array as="points" />
          </mxGeometry>
        </mxCell>
        <mxCell id="dDhgF8H68qVY3gbG-Y3d-122" value="pull&#xa;messag off array" style="html=1;overflow=block;blockSpacing=1;whiteSpace=wrap;fontSize=16.7;fontColor=#3a414a;spacing=3.8;strokeColor=#000000;rounded=1;absoluteArcSize=1;arcSize=9;fillColor=#FFFFFF;strokeWidth=NaN;lucidId=_JcNYRNV_G_x;" vertex="1" parent="1">
          <mxGeometry x="1279" y="1011" width="152" height="90" as="geometry" />
        </mxCell>
        <mxCell id="dDhgF8H68qVY3gbG-Y3d-123" value="call&#xa;this.show" style="html=1;overflow=block;blockSpacing=1;whiteSpace=wrap;fontSize=16.7;fontColor=#3a414a;spacing=3.8;strokeColor=#000000;rounded=1;absoluteArcSize=1;arcSize=9;fillColor=#FFFFFF;strokeWidth=NaN;lucidId=wKcNbGO.ajVP;" vertex="1" parent="1">
          <mxGeometry x="1538" y="1011" width="152" height="90" as="geometry" />
        </mxCell>
        <mxCell id="dDhgF8H68qVY3gbG-Y3d-124" value="" style="html=1;jettySize=18;whiteSpace=wrap;fontSize=13;strokeColor=#3a414a;strokeOpacity=100;strokeWidth=0.8;rounded=1;arcSize=24;edgeStyle=orthogonalEdgeStyle;startArrow=none;endArrow=block;endFill=1;exitX=1.002;exitY=0.5;exitPerimeter=0;entryX=-0.002;entryY=0.5;entryPerimeter=0;lucidId=nLcNDzuxWJP3;" edge="1" parent="1" source="dDhgF8H68qVY3gbG-Y3d-122" target="dDhgF8H68qVY3gbG-Y3d-123">
          <mxGeometry width="100" height="100" relative="1" as="geometry">
            <Array as="points" />
          </mxGeometry>
        </mxCell>
        <mxCell id="dDhgF8H68qVY3gbG-Y3d-125" value="fire&#xa;GA" style="html=1;overflow=block;blockSpacing=1;whiteSpace=wrap;fontSize=16.7;fontColor=#3a414a;spacing=3.8;strokeColor=#000000;rounded=1;absoluteArcSize=1;arcSize=9;fillColor=#FFFFFF;strokeWidth=NaN;lucidId=TLcNqEZMQI_z;" vertex="1" parent="1">
          <mxGeometry x="1546" y="1289" width="152" height="90" as="geometry" />
        </mxCell>
        <mxCell id="dDhgF8H68qVY3gbG-Y3d-126" value="" style="html=1;jettySize=18;whiteSpace=wrap;fontSize=13;strokeColor=#3a414a;strokeOpacity=100;strokeWidth=0.8;rounded=1;arcSize=24;edgeStyle=orthogonalEdgeStyle;startArrow=none;endArrow=block;endFill=1;exitX=1.002;exitY=0.5;exitPerimeter=0;entryX=-0.002;entryY=0.5;entryPerimeter=0;lucidId=ZLcNEdKPyoee;" edge="1" parent="1" source="dDhgF8H68qVY3gbG-Y3d-119" target="dDhgF8H68qVY3gbG-Y3d-125">
          <mxGeometry width="100" height="100" relative="1" as="geometry">
            <Array as="points" />
          </mxGeometry>
        </mxCell>
        <mxCell id="dDhgF8H68qVY3gbG-Y3d-127" value="" style="html=1;jettySize=18;whiteSpace=wrap;fontSize=13;strokeColor=#3a414a;strokeOpacity=100;dashed=1;fixDash=1;dashPattern=3 8;strokeWidth=0.8;rounded=1;arcSize=24;edgeStyle=orthogonalEdgeStyle;startArrow=none;endArrow=block;endFill=1;exitX=0.5;exitY=-0.004;exitPerimeter=0;entryX=0.901;entryY=0.5;entryPerimeter=0;lucidId=kMcNk484X6SP;" edge="1" parent="1" source="dDhgF8H68qVY3gbG-Y3d-122" target="dDhgF8H68qVY3gbG-Y3d-80">
          <mxGeometry width="100" height="100" relative="1" as="geometry">
            <Array as="points">
              <mxPoint x="1355" y="981" />
              <mxPoint x="2038" y="981" />
              <mxPoint x="2038" y="173" />
            </Array>
          </mxGeometry>
        </mxCell>
        <mxCell id="dDhgF8H68qVY3gbG-Y3d-128" value="update" style="text;html=1;resizable=0;labelBackgroundColor=default;align=center;verticalAlign=middle;fontSize=16.8;" vertex="1" parent="dDhgF8H68qVY3gbG-Y3d-127">
          <mxGeometry x="0.5694629404035847" relative="1" as="geometry" />
        </mxCell>
        <mxCell id="dDhgF8H68qVY3gbG-Y3d-129" value="call&#xa;this.check" style="html=1;overflow=block;blockSpacing=1;whiteSpace=wrap;fontSize=16.7;fontColor=#3a414a;spacing=3.8;strokeColor=#000000;rounded=1;absoluteArcSize=1;arcSize=9;fillColor=#FFFFFF;strokeWidth=NaN;lucidId=RMcNiWfz.0Is;" vertex="1" parent="1">
          <mxGeometry x="1784" y="1289" width="152" height="90" as="geometry" />
        </mxCell>
        <mxCell id="dDhgF8H68qVY3gbG-Y3d-130" value="" style="html=1;jettySize=18;whiteSpace=wrap;fontSize=13;strokeColor=#3a414a;strokeOpacity=100;strokeWidth=0.8;rounded=1;arcSize=24;edgeStyle=orthogonalEdgeStyle;startArrow=none;endArrow=block;endFill=1;exitX=1.002;exitY=0.5;exitPerimeter=0;entryX=-0.002;entryY=0.5;entryPerimeter=0;lucidId=XMcNHUq3s.TD;" edge="1" parent="1" source="dDhgF8H68qVY3gbG-Y3d-125" target="dDhgF8H68qVY3gbG-Y3d-129">
          <mxGeometry width="100" height="100" relative="1" as="geometry">
            <Array as="points" />
          </mxGeometry>
        </mxCell>
        <mxCell id="dDhgF8H68qVY3gbG-Y3d-131" value="messages?" style="html=1;overflow=block;blockSpacing=1;whiteSpace=wrap;rhombus;fontSize=16.7;fontColor=#3a414a;spacing=3.8;strokeColor=#000000;rounded=1;absoluteArcSize=1;arcSize=9;fillColor=#FFFFFF;strokeWidth=NaN;lucidId=ENcNiic4fDXW;" vertex="1" parent="1">
          <mxGeometry x="1226" y="546" width="150" height="104" as="geometry" />
        </mxCell>
        <mxCell id="dDhgF8H68qVY3gbG-Y3d-132" value="" style="html=1;jettySize=18;whiteSpace=wrap;fontSize=13;strokeColor=#3a414a;strokeOpacity=100;strokeWidth=0.8;rounded=1;arcSize=24;edgeStyle=orthogonalEdgeStyle;startArrow=none;endArrow=block;endFill=1;exitX=0.5;exitY=0.997;exitPerimeter=0;entryX=0.5;entryY=-0.006;entryPerimeter=0;lucidId=1NcNwqmFO1O4;" edge="1" parent="1" source="dDhgF8H68qVY3gbG-Y3d-131" target="dDhgF8H68qVY3gbG-Y3d-136">
          <mxGeometry width="100" height="100" relative="1" as="geometry">
            <Array as="points" />
          </mxGeometry>
        </mxCell>
        <mxCell id="dDhgF8H68qVY3gbG-Y3d-133" value="no" style="text;html=1;resizable=0;labelBackgroundColor=default;align=center;verticalAlign=middle;fontColor=#3a414a;fontSize=16.8;" vertex="1" parent="dDhgF8H68qVY3gbG-Y3d-132">
          <mxGeometry relative="1" as="geometry" />
        </mxCell>
        <mxCell id="dDhgF8H68qVY3gbG-Y3d-134" value="" style="html=1;jettySize=18;whiteSpace=wrap;fontSize=13;strokeColor=#3a414a;strokeOpacity=100;strokeWidth=0.8;rounded=1;arcSize=24;edgeStyle=orthogonalEdgeStyle;startArrow=none;endArrow=block;endFill=1;exitX=0.992;exitY=0.5;exitPerimeter=0;entryX=0.009;entryY=0.5;entryPerimeter=0;lucidId=-NcNhP5fSWso;" edge="1" parent="1" source="dDhgF8H68qVY3gbG-Y3d-131" target="dDhgF8H68qVY3gbG-Y3d-73">
          <mxGeometry width="100" height="100" relative="1" as="geometry">
            <Array as="points" />
          </mxGeometry>
        </mxCell>
        <mxCell id="dDhgF8H68qVY3gbG-Y3d-135" value="yes" style="text;html=1;resizable=0;labelBackgroundColor=default;align=center;verticalAlign=middle;fontSize=16.8;" vertex="1" parent="dDhgF8H68qVY3gbG-Y3d-134">
          <mxGeometry x="0.39000353846480174" relative="1" as="geometry" />
        </mxCell>
        <mxCell id="dDhgF8H68qVY3gbG-Y3d-136" value="done" style="html=1;overflow=block;blockSpacing=1;whiteSpace=wrap;fontSize=16.8;align=center;spacing=3.8;strokeColor=#000000;rounded=1;absoluteArcSize=1;arcSize=12;fillColor=#FFFFFF;strokeWidth=NaN;lucidId=sOcNnm.QJNt0;" vertex="1" parent="1">
          <mxGeometry x="1241" y="741" width="120" height="60" as="geometry" />
        </mxCell>
        <mxCell id="dDhgF8H68qVY3gbG-Y3d-137" value="" style="html=1;jettySize=18;whiteSpace=wrap;fontSize=13;strokeColor=#3a414a;strokeOpacity=100;strokeWidth=0.8;rounded=1;arcSize=24;edgeStyle=orthogonalEdgeStyle;startArrow=none;endArrow=block;endFill=1;exitX=0.5;exitY=1.004;exitPerimeter=0;entryX=0.5;entryY=-0.004;entryPerimeter=0;lucidId=7OcN0IBTY3mh;" edge="1" parent="1" source="dDhgF8H68qVY3gbG-Y3d-110" target="dDhgF8H68qVY3gbG-Y3d-138">
          <mxGeometry width="100" height="100" relative="1" as="geometry">
            <Array as="points" />
          </mxGeometry>
        </mxCell>
        <mxCell id="dDhgF8H68qVY3gbG-Y3d-138" value="call&#xa;toast.check" style="html=1;overflow=block;blockSpacing=1;whiteSpace=wrap;fontSize=16.7;fontColor=#3a414a;spacing=3.8;strokeColor=#000000;rounded=1;absoluteArcSize=1;arcSize=9;fillColor=#FFFFFF;strokeWidth=NaN;lucidId=7OcNH-uW4.sE;" vertex="1" parent="1">
          <mxGeometry x="551" y="1511" width="200" height="90" as="geometry" />
        </mxCell>
        <mxCell id="dDhgF8H68qVY3gbG-Y3d-139" value="call&#xa;button.update" style="html=1;overflow=block;blockSpacing=1;whiteSpace=wrap;fontSize=16.7;fontColor=#3a414a;spacing=3.8;strokeColor=#000000;rounded=1;absoluteArcSize=1;arcSize=9;fillColor=#FFFFFF;strokeWidth=NaN;lucidId=4PcNBarxy3uR;" vertex="1" parent="1">
          <mxGeometry x="802" y="245" width="152" height="90" as="geometry" />
        </mxCell>
        <mxCell id="dDhgF8H68qVY3gbG-Y3d-140" value="" style="html=1;jettySize=18;whiteSpace=wrap;fontSize=13;strokeColor=#3a414a;strokeOpacity=100;strokeWidth=0.8;rounded=1;arcSize=24;edgeStyle=orthogonalEdgeStyle;startArrow=none;endArrow=block;endFill=1;exitX=0.5;exitY=1.004;exitPerimeter=0;entryX=0.5;entryY=-0.004;entryPerimeter=0;lucidId=bQcNBdT-jIAL;" edge="1" parent="1" source="dDhgF8H68qVY3gbG-Y3d-83" target="dDhgF8H68qVY3gbG-Y3d-139">
          <mxGeometry width="100" height="100" relative="1" as="geometry">
            <Array as="points" />
          </mxGeometry>
        </mxCell>
        <mxCell id="dDhgF8H68qVY3gbG-Y3d-141" value="call&#xa;toast.check" style="html=1;overflow=block;blockSpacing=1;whiteSpace=wrap;fontSize=16.7;fontColor=#3a414a;spacing=3.8;strokeColor=#000000;rounded=1;absoluteArcSize=1;arcSize=9;fillColor=#FFFFFF;strokeWidth=NaN;lucidId=kQcN6iqv_eYn;" vertex="1" parent="1">
          <mxGeometry x="806" y="386" width="152" height="90" as="geometry" />
        </mxCell>
        <mxCell id="dDhgF8H68qVY3gbG-Y3d-142" value="" style="html=1;jettySize=18;whiteSpace=wrap;fontSize=13;strokeColor=#3a414a;strokeOpacity=100;strokeWidth=0.8;rounded=1;arcSize=24;edgeStyle=orthogonalEdgeStyle;startArrow=none;endArrow=block;endFill=1;exitX=0.5;exitY=1.004;exitPerimeter=0;entryX=0.473;entryY=-0.004;entryPerimeter=0;lucidId=rQcNqYr3TuhK;" edge="1" parent="1" source="dDhgF8H68qVY3gbG-Y3d-139" target="dDhgF8H68qVY3gbG-Y3d-141">
          <mxGeometry width="100" height="100" relative="1" as="geometry">
            <Array as="points" />
          </mxGeometry>
        </mxCell>
      </root>
    </mxGraphModel>
  </diagram>
</mxfile>
